<?xml version="1.0" standalone="no"?>
<!DOCTYPE svg PUBLIC "-//W3C//DTD SVG 20010904//EN"
 "http://www.w3.org/TR/2001/REC-SVG-20010904/DTD/svg10.dtd">
<svg version="1.0" xmlns="http://www.w3.org/2000/svg"
 width="1030.000000pt" height="302.000000pt" viewBox="0 0 1030.000000 302.000000"
 preserveAspectRatio="xMidYMid meet">

<g transform="translate(0.000000,302.000000) scale(0.100000,-0.100000)"
fill="#000000" stroke="none">
<path d="M1632 2544 l-22 -15 0 -854 0 -854 22 -15 c29 -20 77 -20 106 0 l22
15 0 854 0 854 -22 15 c-12 9 -36 16 -53 16 -17 0 -41 -7 -53 -16z"/>
<path d="M612 2054 l-22 -15 0 -609 0 -609 22 -15 c26 -18 80 -21 109 -6 18
10 19 28 19 630 0 602 -1 620 -19 630 -29 15 -83 12 -109 -6z"/>
<path d="M1286 1964 c-14 -14 -16 -80 -16 -579 l0 -565 25 -16 c29 -19 102
-14 116 8 5 7 9 268 9 580 0 551 -1 568 -19 578 -30 15 -97 12 -115 -6z"/>
<path d="M1962 1718 c-14 -14 -17 -884 -3 -906 14 -22 87 -27 116 -8 l25 16 0
443 c0 331 -3 446 -12 455 -7 7 -35 12 -63 12 -28 0 -56 -5 -63 -12z"/>
<path d="M940 1501 c-6 -13 -10 -141 -10 -350 0 -330 0 -330 22 -345 12 -9 39
-16 60 -16 69 0 68 -8 68 369 0 249 -3 340 -12 349 -7 7 -36 12 -65 12 -41 0
-54 -4 -63 -19z"/>
<path d="M2302 1418 c-9 -9 -12 -91 -12 -310 0 -284 1 -298 19 -308 29 -15 83
-12 109 6 22 15 22 17 22 304 0 249 -2 291 -16 304 -19 19 -104 22 -122 4z"/>
</g>
</svg>
